<?xml version="1.0" standalone="no"?>
<!DOCTYPE svg PUBLIC "-//W3C//DTD SVG 20010904//EN"
 "http://www.w3.org/TR/2001/REC-SVG-20010904/DTD/svg10.dtd">
<svg version="1.0" xmlns="http://www.w3.org/2000/svg"
 width="64.000000pt" height="64.000000pt" viewBox="0 0 64.000000 64.000000"
 preserveAspectRatio="xMidYMid meet">

<g transform="translate(0.000000,64.000000) scale(0.100000,-0.100000)"
fill="#000000" stroke="none">
<path d="M355 615 c-14 -13 -25 -29 -25 -34 0 -7 -60 -12 -162 -13 -146 -3
-163 -5 -166 -20 -3 -17 9 -18 154 -18 l157 0 32 -37 c26 -31 38 -37 70 -37
32 0 44 6 70 37 31 35 35 37 94 37 54 0 62 2 59 18 -3 14 -16 18 -71 20 -49 2
-67 7 -67 17 0 23 -50 55 -87 55 -23 0 -42 -8 -58 -25z m100 -35 c22 -25 13
-68 -17 -79 -54 -20 -94 27 -64 74 20 30 56 33 81 5z"/>
<path d="M166 389 c-14 -11 -26 -27 -26 -34 0 -10 -18 -15 -67 -17 -53 -2 -68
-6 -68 -18 0 -12 15 -16 68 -18 49 -2 67 -7 67 -17 0 -22 50 -55 85 -55 35 0
85 33 85 55 0 12 31 15 163 17 136 3 162 5 162 18 0 13 -26 15 -162 18 -132 2
-163 5 -163 17 0 22 -50 55 -85 55 -18 0 -44 -9 -59 -21z m96 -36 c22 -20 23
-41 1 -65 -20 -22 -51 -23 -75 -1 -22 20 -23 46 -2 67 20 21 53 20 76 -1z"/>
<path d="M383 180 c-12 -5 -32 -23 -44 -39 l-23 -31 -159 0 c-146 0 -158 -1
-155 -17 3 -16 20 -18 163 -21 l160 -3 17 -29 c31 -54 124 -51 150 4 10 23 18
25 77 28 53 2 66 6 69 21 3 15 -5 17 -59 17 -58 0 -64 2 -93 35 -34 37 -68 49
-103 35z m81 -73 c20 -56 -57 -92 -90 -42 -19 29 -11 63 19 74 31 12 60 -2 71
-32z"/>
</g>
</svg>
